PathFileType	4	(X/Y/Z)	C:/Users/beibeiliu/ov580/test_trc/User2\sequence.10_training_dense_left.trc
DataRate	CameraRate	NumFrames	NumMarkers	Units	OrigDataRate	OrigDataStartFrame	OrigNumFrames
120	120	20	19	mm	120	61	484
Frame#	Time	ThumbCMC			ThumbMCP			ThumbIP			ThumbTip			IndexMCP			IndexPIP			IndexTip			MiddleMCP			MiddlePIP			MiddleTip			RingMCP			RingPIP			RingTip			PinkyMCP			PinkyPIP			PinkyTip			BackHand1			BackHand2			BackHand3	
		X0	Y0	Z0	X1	Y1	Z1	X2	Y2	Z2	X3	Y3	Z3	X4	Y4	Z4	X5	Y5	Z5	X6	Y6	Z6	X7	Y7	Z7	X8	Y8	Z8	X9	Y9	Z9	X10	Y10	Z10	X11	Y11	Z11	X12	Y12	Z12	X13	Y13	Z13	X14	Y14	Z14	X15	Y15	Z15	X16	Y16	Z16	X17	Y17	Z17	X18	Y18	Z18	
60	0.5	-127.118	-40.5071	134.456	-121.621	-54.0511	101.081	-126.924	-61.4869	62.105	-145.318	-62.3393	44.994	-139.511	8.79298	70.6113	-134.774	20.3428	44.2346	-132.658	32.6423	15.5337	-163.735	-4.57735	51.3844	-165.068	-32.4424	29.6813	-158.234	-68.0187	53.882	-188.265	-16.6337	53.6963	-184.312	-46.5173	39.6938	-172.496	-66.7247	65.106	-204.899	-27.1696	67.74	-197.792	-56.3937	52.1891	-184.971	-74.5846	75.6337	-191.013	-5.13639	116.086	-190.685	-12.0443	153.428	-158.778	-5.81996	134.084	
61	0.508333	-132.407	-36.5043	129.887	-126.567	-51.3883	96.6258	-132.897	-59.4016	61.754	-153.946	-59.586	38.7246	-152.064	14.3692	68.7449	-147.995	26.6458	41.7518	-143.296	37.7231	16.5963	-175.716	-1.35092	49.9516	-176.613	-31.9098	29.8717	-168.862	-63.2973	52.7024	-200.869	-13.501	56.2113	-192.89	-41.4433	39.7803	-183.84	-64.2337	67.7411	-217.679	-24.7926	66.826	-205.202	-53.7747	53.2955	-190.829	-67.2901	77.612	-200.147	-2.85238	116.915	-196.617	-9.69528	150.944	-159.753	-0.501693	135.936	
62	0.516667	-138.72	-34.2282	128.488	-134.953	-48.6146	92.0806	-141.995	-58.4837	62.5379	-164.839	-59.2999	40.1624	-160.985	16.692	63.1684	-158.719	26.1193	39.8843	-160.744	37.0906	11.0241	-187.045	-1.5513	51.2482	-184.711	-33.5119	29.3541	-180.655	-64.2594	52.7789	-210.215	-15.6095	55.1021	-202.258	-41.7238	40.2256	-189.751	-64.2258	69.7998	-225.4	-25.7261	70.1908	-214.71	-55.2111	55.7894	-197.966	-70.1599	81.6	-204.768	-1.77167	122.731	-199.591	-8.66821	152.448	-168.349	0.342929	132.952	
63	0.525	-145.555	-32.5195	125.376	-140.312	-50.0132	92.4913	-149.966	-61.9135	61.5826	-173.436	-66.8287	43.1511	-171.13	11.4522	59.4903	-170.862	20.3349	31.7594	-171.853	29.3567	5.66305	-199.593	-8.92533	48.3452	-196.429	-38.6675	29.9336	-183.862	-68.4871	54.6436	-218.726	-21.2765	58.5078	-210.613	-51.0812	43.6481	-196.972	-69.5981	70.8525	-231.696	-31.1548	74.0973	-223.042	-62.5347	59.8572	-200.677	-71.2021	84.4769	-210.956	-4.4899	120.017	-210.065	-8.05533	154.639	-175.006	2.79685	128.214	
64	0.533333	-152.336	-31.8523	123.213	-143.628	-55.3003	95.3875	-155.903	-71.5831	59.8173	-179.391	-79.2789	49.3962	-180.996	2.32641	52.7879	-180.524	7.44878	25.2379	-180.393	12.0634	2.65228	-206.517	-19.1688	47.5613	-204.809	-55.2613	33.7986	-190.39	-79.0162	62.1254	-228.878	-35.1482	57.7968	-219.245	-64.4534	48.2403	-198.566	-77.8347	76.5854	-237.324	-43.8589	75.896	-226.061	-74.6259	66.2994	-206.977	-82.577	91.4113	-219.317	-9.14395	118.963	-212.143	-9.93489	151.735	-180.757	-1.62873	125.317	
65	0.541667	-154.859	-35.3723	122.293	-150.741	-61.9898	93.2539	-159.358	-83.8574	71.4954	-184.126	-94.0953	56.5678	-185.918	-11.8569	53.4193	-189.036	-12.5699	22.4171	-191.626	-8.83878	-4.68021	-213.251	-34.4209	47.9806	-213.043	-71.469	39.8909	-198.553	-91.2093	68.5246	-229.82	-49.5135	60.1321	-221.854	-80.5801	56.4878	-203.222	-90.511	84.6837	-242.517	-59.0201	79.1228	-231.364	-89.3402	77.5518	-204.081	-88.7146	96.8302	-222.865	-15.8188	119.592	-218.739	-9.21908	148.177	-188.204	-3.86145	123.144	
66	0.55	-155.813	-39.3419	121.205	-150.483	-69.6763	98.7809	-164.005	-95.4269	76.0683	-188.756	-109.11	64.279	-190.121	-24.9851	51.5676	-193.376	-29.1574	22.5498	-197.33	-31.0083	-5.17651	-220.777	-49.0109	50.3814	-215.524	-82.4856	41.9385	-198.086	-100.338	77.8509	-235.608	-62.7505	65.3211	-229.065	-94.5586	64.2473	-205.662	-101.607	88.6002	-248.107	-66.7146	88.6594	-233.107	-97.3017	84.4089	-210.211	-100.084	107.294	-225.493	-19.2227	118.06	-219.557	-12.1854	146.343	-190.152	-6.95955	119.452	
67	0.558333	-157.128	-40.8193	120.738	-153.851	-73.6608	102.14	-166.433	-101.956	79.1897	-195.015	-112.728	72.8774	-196.791	-32.3093	51.5035	-197.611	-37.3635	24.1508	-201.698	-39.9301	-2.80345	-223.615	-55.8544	54.7796	-219.201	-92.466	49.58	-202.282	-105.731	82.2088	-238.305	-68.072	68.6656	-228.505	-100.794	69.3555	-206.141	-105.953	94.9012	-250.51	-75.7466	89.7474	-234.2	-105.002	90.9438	-208.621	-100.456	111.673	-229.636	-21.9312	117.675	-220.249	-13.7209	144.723	-192.722	-10.6108	117.644	
68	0.566667	-158.578	-40.4996	123.477	-155.092	-72.827	101.488	-169.503	-96.3157	81.4797	-195.595	-111.268	69.9915	-197.231	-28.1685	49.9653	-201.36	-31.1017	20.8457	-208.294	-34.4477	-1.92294	-225.958	-51.1635	54.0038	-223.66	-86.4162	48.1318	-203.334	-102.29	78.6012	-238.992	-62.3058	68.6308	-232.338	-95.692	66.5925	-212.981	-106.167	92.9677	-254.72	-71.404	90.7904	-236.706	-100.91	87.3315	-211.749	-99.3706	106.47	-231.03	-21.9213	115.952	-224.496	-11.134	148.102	-195.612	-11.1474	119.309	
69	0.575	-165.179	-37.4084	125.862	-161.99	-66.3544	97.8403	-173.994	-89.2316	73.6535	-198.052	-102.415	63.0543	-197.252	-17.4695	51.2871	-204.32	-19.1696	22.6373	-211.08	-20.083	-1.53291	-229.725	-43.765	51.8939	-227.956	-76.793	44.6762	-207.072	-94.7587	76.9453	-245.678	-56.0473	68.2952	-239.676	-86.7095	62.6568	-215.044	-97.8075	87.5172	-258.298	-63.976	87.1514	-241.408	-92.824	81.8823	-219.092	-97.705	102.18	-234.962	-16.1751	122.125	-226.152	-10.4012	154.788	-197.758	-7.30265	123.29	
70	0.583333	-167.488	-33.102	123.497	-168.728	-58.2589	97.8193	-179.598	-80.7877	69.5998	-204.68	-91.3239	57.3323	-204.449	-7.89442	53.1887	-207.479	-6.92716	29.277	-219.48	-6.18914	-1.42108	-232.213	-32.5167	53.3756	-233.64	-66.9914	42.6044	-212.154	-86.9331	69.3834	-252.341	-47.2026	68.1788	-240.804	-80.0023	60.9505	-219.023	-90.4527	89.2704	-264.453	-57.8711	85.7631	-252.077	-87.1859	80.3999	-222.265	-89.7281	99.6958	-241.753	-13.044	121.816	-226.333	-8.1632	153.965	-202.174	-3.15586	125.599	
71	0.591667	-176.333	-28.3365	118.511	-172.035	-54.7756	95.5289	-188.777	-74.9101	69.1816	-211.997	-88.8791	55.4442	-220.435	-5.33756	54.2842	-223.518	-2.97218	26.2803	-232.561	-0.727259	-0.516603	-243.892	-28.1686	54.8937	-239.871	-62.7959	41.7466	-218.631	-84.1277	71.6807	-258.66	-46.1049	66.907	-252.48	-73.7985	60.406	-225.899	-86.8718	88.9291	-270.873	-52.3194	91.31	-256.678	-82.644	79.3649	-228.369	-88.7059	97.8722	-248.946	-11.55	121.975	-235.801	-5.75133	154.434	-208.228	1.41462	122.904	
72	0.6	-180.928	-25.7613	119.778	-180.834	-53.6408	93.533	-194.228	-77.2016	67.3751	-220.927	-89.1715	59.905	-231.374	-5.95185	52.9179	-237.956	-5.38887	28.0616	-244.56	-3.79631	2.68429	-256.783	-33.3334	55.0683	-251.553	-69.0925	47.0434	-229.065	-85.3486	73.3242	-268.99	-48.8931	70.5559	-257.261	-78.8893	63.6763	-229.682	-86.6403	88.634	-275.364	-53.5233	91.8393	-264.418	-84.8027	82.5519	-236.308	-92.3988	101.081	-257.301	-10.5921	125.839	-240.366	-3.18579	156.547	-218.681	2.32307	124.303	
73	0.608333	-188.63	-23.7031	117.732	-190.195	-53.1208	92.0249	-203.638	-81.0592	69.2048	-223.379	-97.5993	63.1339	-238.707	-11.3749	52.5064	-245.956	-11.971	24.805	-260.542	-14.1602	-0.0880679	-261.272	-39.0408	56.5163	-258.015	-73.7578	48.5947	-230.475	-89.6512	78.5906	-273.014	-53.7673	73.1279	-258.965	-85.6179	68.6142	-232.655	-90.8671	93.6025	-281.104	-63.6817	92.7143	-265.756	-93.0716	89.728	-235.083	-88.977	104.523	-261.308	-13.6563	120.957	-251.69	-5.91691	152.244	-227.549	1.28553	119.368	
74	0.616667	-194.17	-21.6827	116.016	-185.331	-53.3017	92.0747	-198.823	-83.7355	72.4929	-216.436	-102.555	66.5716	-244.122	-18.9776	50.7842	-253.222	-22.673	25.1176	-262.018	-25.3608	-1.03343	-262.258	-50.2602	55.0689	-252.505	-83.9983	52.2573	-224.517	-94.3902	77.6328	-270.563	-62.2017	74.3003	-255.208	-96.0721	73.2742	-230.601	-96.0786	93.6917	-279.946	-73.2484	97.4357	-260.2	-96.8564	92.3301	-230.894	-91.0287	107.637	-266.169	-20.9937	124.583	-252.125	-4.37318	149.988	-231.37	0.624348	117.174	
75	0.625	-190.56	-15.9501	114.85	-178.89	-47.4902	96.381	-180.041	-77.5124	77.5742	-197.3	-101.314	71.9103	-242.475	-24.9934	50.5273	-249.006	-32.4813	22.008	-253.85	-36.4951	-2.85278	-251.517	-57.834	55.3214	-235.985	-91.516	54.2939	-207.652	-93.6967	85.849	-260.312	-75.4762	74.5699	-237.982	-99.2571	72.5692	-212.356	-95.27	102.19	-265.581	-80.2494	97.0524	-242.256	-104.572	96.8677	-215.734	-88.9211	111.884	-263.559	-26.896	114.869	-254.573	-8.37445	148.488	-235.692	-0.207842	118.087	
76	0.633333	-189.059	-8.57193	114.88	-167.093	-34.167	100.387	-164.068	-65.8262	83.0903	-171.067	-92.3478	74.1601	-228.382	-25.3931	49.3338	-232.561	-34.5362	20.8321	-238.597	-46.9518	-2.01885	-232.873	-65.4244	53.1782	-209.926	-93.6469	55.9325	-184.873	-89.6245	85.5806	-237.768	-79.5132	71.3597	-211.758	-103.124	77.6794	-192.707	-92.0789	103.339	-244.714	-91.8854	95.0608	-215.144	-104.928	99.0978	-195.068	-81.4549	119.62	-257.515	-35.071	116.18	-260.058	-19.7314	142.958	-238.055	-4.9467	111.956	
77	0.641667	-193.033	-1.83798	120.532	-163.549	-21.1904	104.991	-144.124	-48.0009	88.8949	-144.933	-74.5343	81.5065	-219.778	-31.7034	50.0283	-218.558	-40.4487	21.367	-219.007	-53.7596	-3.90696	-211.882	-65.5869	54.1794	-182.313	-85.6976	55.9833	-162.916	-79.2301	90.9855	-212.355	-85.3288	73.4143	-182.19	-97.3932	82.3657	-168.132	-78.9298	109.829	-215.963	-94.9817	94.2937	-183.617	-97.1881	103.247	-177.219	-73.1576	120.299	-251.019	-46.8509	112.161	-255.344	-29.8247	142.32	-237.992	-11.3095	111.24	
78	0.65	-193.107	6.88035	121.589	-159.61	-9.09443	107.607	-135.193	-29.6326	95.8075	-128.905	-55.8858	89.6199	-206.913	-33.6454	49.1825	-202.403	-39.8149	24.5077	-196.875	-52.6591	0.548054	-194.664	-66.5262	60.1063	-154.773	-75.7901	62.0222	-139.671	-61.438	92.7332	-190.644	-81.7267	77.2221	-156.205	-87.6657	85.8434	-147.036	-66.6848	110.462	-193.089	-91.2789	100.492	-157.671	-85.2599	108.2	-157.285	-60.5146	126.089	-234.899	-52.4981	114.611	-246.885	-39.5905	139.969	-232.525	-14.7492	111.64	
79	0.658333	-195.781	7.97939	121.851	-158.879	4.30181	111.873	-127.006	-9.62407	99.4417	-113.778	-34.7184	94.4175	-196.424	-33.4208	52.7663	-187.254	-41.603	23.2197	-180.108	-47.4157	2.0252	-175.679	-62.1887	61.7349	-139.98	-62.1013	61.8048	-125.647	-46.8804	95.7807	-165.876	-75.5634	78.1456	-136.419	-72.6535	89.1325	-130.958	-48.1776	112.75	-169.853	-85.6288	102.997	-138.897	-75.6388	110.914	-142.258	-48.5488	128.186	-221.679	-59.1865	116.723	-239.74	-46.4216	137.755	-230.461	-21.3727	110.198	
